# xmcd
#
# Track frame offsets: 
#        150
#        15875
#        66225
#        96800
#        127450
#        186675
#        234787
#        261825
#
# Disc length: 3821 seconds
#
# Revision: 0
# Processed by: cddbd v1.4PL0 Copyright (c) Steve Scherf et al.
# Submitted via: ExactAudioCopy v0.90a11
#
DISCID=6d0eeb08
DTITLE=The Pete Haycock Band - Livin' it
DYEAR=1900
DGENRE=
TTITLE0=Liberty
TTITLE1=So Many Roads
TTITLE2=Communication
TTITLE3=Medley
TTITLE4=The Thrill Is Gone
TTITLE5=Lucienne
TTITLE6=Dr. Brown, I Presume
TTITLE7=Blackjack And Me
EXTD=
EXTT0=Liberty
EXTT1=
EXTT2=
EXTT3=
EXTT4=
EXTT5=
EXTT6=
EXTT7=
PLAYORDER=
